P1
# Created by GIMP version 2.10.30 PNM plug-in
128 128
0000000000000000000000000000000000000000000000000000000000000000000000
0000000000000000000000000000000000000000000000000000000000000000000000
0000000000000000000000000000000000000000000000000000000000000000000000
0000000000000000000000000000000000000000000000000000000000000000000000
0000000000000000000000000000000000000011000000000000000000000000000000
0000000000000000000000000000000000000000000000000000000000000000000000
0000000000000000000000000111000000000000000000000000000000000000000000
0000000000000000000000000000000000000000000000000000000000000000000000
0000000000000100000000001110000000000000000000000000000000000000000000
0000000000000000000000000000000000000000000000000000000000000000000000
0000000000000110000000000000000000000000000000000000000000000000000000
0000000000000000000000000000000000000000000000000000000000000000000000
0001000000000000000000000000000000000000000000000000000000000000000000
0000000000000000000000000000000000000000000000011110000000000100000000
0000000000000000000000000000000000000000000000000000000000000000000000
0000000000000000000000000000000000111111000000000000000000000000000000
0000000000000000000000000000000000000000000000000000000000000000000000
0000000000000000000001100001100010000000000000000000000000000000000000
0000000000000000000000000000000000000000000000000000000000000000000000
0000000011000000111111000000000000000000000000000000000000000000000000
0000000000000000000000000000000000000000000000000000000000000000001000
0000110001100000000000000000000000000000000000000000000000000000000000
0000000000000000000000000000000000000000000000000000011000000110000011
0000000000000000000000000000000000000000000000000000000000000000000000
0000000000000000000000000000000000000000010000000100000001000000000000
0000000000000000000000000000000000000000000000000000000000000000000000
0000000000000000000000000000010000000000000001000000000000000000000000
0000000000000000000000000000000000000000000000000000000000000000000000
0000000000000000110000000000000001000000000000000000000000000000000000
0000000000000000000000000000000000000000000000000000000000000000000000
0000100000000000000001000000000000000000000000000000000000000000000000
0000000000000000000000000000000000000000000000000000000000000010000000
0000000001000000000000000000000000000000000000000000000000000000000000
0000000000000000000000000000000000000000000000000010000010000000000100
0000000000000000000000000000000000000000000000000000000000000000000000
0000000000000000000000000000000000001110000111011100000100000000000000
0000000000000000000000000000000000000000000000000000000000000000000000
0000000000000000000000011110001111011100000100000000000000000000000000
0000000000000000000000000000000000000000000000000000000000000000000000
0000000000110011001101010100000100000000000000000000000000000000000000
0000000000000000000000000000000000000000000000000000000000000000000011
0001000110011100001110000000000000000000000000000000000000000000000000
0000000000000000000000000000000000000000000000000000000110000110000000
1000001011000000000000000000000000000000000000000000000000000000000000
0000000000000000000000000000000000000000000110000011101111000001101100
0000000000000000000000000000000000000000000000000000000000000000000000
0000000000000000000000000000001100000001111101111111000110000000000000
0000000000000000000000000000000000000000000000000000000000000000000000
0000000000000000001100000000010000011110000110000000000000000000000000
0000000000000000000000000000000000000000000000000000000000000000000000
0000001100000000000000000000000110000000000000000000000000000000000000
0000000000000000000000000000000000000000000000000000000000000001100000
0000000000000000000010000000000000000000000000000000000000000000000000
0000000000000000000000000000000000000000000000000001100000000000000000
0000000011000000000000000000000000000000000000000000000000000000000000
0000000000000000000000000000000000000001100000000000000000000000001100
0000000000000000000000000000000000000000000000000000000000000000000000
0000000000000000000000000001100000000000000000000000001100000000000000
0000000000000000000000000000000000000000000000000000000000000000000000
0000000000000011100000000000000000000000001100000000000000000000000000
0000000000000000000000000000000000000000000000000000000000000000000000
0011000000000000000000000000001100000000000000000000000000000000000000
0000000000000000000000000000000000000000000000000000000000001100000000
0000000000000000001100000000000000000000000000000000000000000000000000
0000000000000000000000000000000000000000000000001100000000000000000000
0000011100000000000000000000000000000000000000000000000000000000000000
0000000000000000000000000000000000001100000000000000000000000001100000
0000000000000000000000000000000000000000000000000000000000000000000000
0000000000000000000000001100000000000000000000000001100000000000000000
0000000000000000000000000000000000000000000000000000000000000000000000
0000000000001100000000000000000000000011100000000000000000000000000000
0000000000000000000000000000000000000000000000000000000000000000000000
0110000000000000000000000011100000000000000000000000000000000000000000
0000000000000000000000000000000000000000000000000000000000011000000000
0000000000000011100000000000000000000000000000000000000000000000000000
0000000000000000000000000000000000000000000000011001000000000000000000
0111100000000000000000000000000000000000000000000000000000000000000000
0000000000000000000000000000000000011001000000000100000000111110000000
0000000000000000000000000000000000000000000000000000000000000000000000
0000000000000000000000001101000000000100000000110100000000000000000000
0000000000000000000000000000000000000000000000000000000000000000000000
0000000000001101000000000100000001101100000000000000000000000000000000
0000000000000000000000000000000000000000000000000000000000000000000000
0110000000000100000011001100000000000000000000000000000000000000000000
0000000000000000000000000000000000000000000000000000000000001100000000
0000000110001100000000000000000000000000000000000000000000000000000000
0000000000000000000000000000000000000000000000000111000000000001110000
1000000000000000000000000000000000000000000000000000000000000000000000
0000000000000000000000000000000000000011110000001111100001100000000000
0000000000000000000000000000000000000000000000000000000000000000000000
0000000000000000000000000001111111111110000001100000000000000000000000
0000000000000000000000000000000000000000000000000000000000000000000000
0000000000000000111111110000000011000000000000000000000000000000000000
0000000000000000000000000000000000000000000000000000000000000000000000
0000111000000000000011000000000000000000000000000000000000000000000000
0000000000000000000000000000000000000000000000000000000000000011111110
0000000110000000000000000000000000000000000000000000000000000000000000
0000000000000000000000000000000000000000000000000011100111000000011000
0000000000000000000000000000000000000000000000000000000000000000000000
0000000000000000000000000000000000000011000011000000010000000000000000
0000000000000000000000000000000000000000000000000000000000000000000000
0000000000000000000000000111000001100000110000000000111100000000000000
0000000000000000000000000000000000000000000000000000000000000000000000
0000000000001101000001100000100000000111111110000000000000000000000000
0000000000000000000000000000000000000000000000000000000111000000000000
1001000001100001100000011111000011000000000000000000000000000000000000
0000000000000000000000000000000000000000011111111000000001100110000110
0001100001111000000011000000000000000000000000000000000000000000000000
0000000000000000000000000000010000001110000011111010000110001100011110
0000000011111111000000000000000000000000000000000000000000000000000000
0000000000000000110000000011000011000011000110001100111000000000001111
1111110000000000000000000000000000000000000000000000000000000000000000
0000100000000000110110000011000100001001110000000000011100000111100000
0000000000000000000000000000000000000000000000000000000000011010000000
0000011110000011000100011111000000000000111000000001110000000000000000
0000000000000000000000000000000000000000000011111111000000000000111000
1101000100011110000000000001110000000000110000000000000000000000000000
0000000000000000000000000000000110000011000000000000111100000100110001
1100000000000111100000000000111000000000000000000000000000000000000000
0000000000000000001100000001100000000001100111000000110011100000000001
1110000000000000011000000000000000000000000000000000000000000000000000
0000011000000001110000000011000001111110110011000000001111110000000000
0000111000000000000000000000000000000000000000000000000000000001100000
0000111000000011000000000000100011000000111111000000000000000111100000
0000000000000000000000000000000000000000000000000001100000000000111000
0110000000000001100011111111111100000000000000001111100000000000000000
0000000000000000000000000000000000000011110000000000011111111100000000
0001100011111110000000000000000000011111100000000000000000000000000000
0000000000000000000000000011011000000000000111111110000000000110001000
0000000000000000000000111011100000000000000000000000000000000000000000
0000000000000011001100000000000001100011100000000100011000000000000000
0000000001110011100000000000000000000000000000000000000000000000000000
0011001110000000000001100000111111000100011000000000000000000000011100
0111100000000000000000000000000000000000000000000000000000001110111110
0000000001100000000010000100011000000000000000000001111100111111000000
0000000000000000000000000000000000000000000000011111110111000000001100
0000000000000100011000000000000000000111101101111111100000000000000000
0000000000000000000000000000000000110011110001111000001100000000000000
1100011000000000000000111110001111111100110000000000000000000000000000
0000000000000000000000100001110000011110001100000000000000110001100000
0000001111111000001111110000011000000000000000000000000000000000000000
0000000001100000111100010011111110000000000000110001111111111111111110
0000011111100000011000000000000000000000000000000000000000000000000100
0000001111010000001111100000000000010001101111111000001110000111111000
0000001100000000000000000000000000000000000000000000000100000000001111
1100001111111000000000010001100001100000001110111111100000000000110000
0000000000000000000000000000000000000000000100000000000001111111110011
1111111110010001100011000000011111111110000000000000110000000000000000
0000000000000000000000000000000110000000000000000001110000001111110001
0001111111111111111111110000000000000000011000000000000000000000000000
0000000000000000000010000000000000000000110000000000000001000010111111
1111111100000000000000000000111000000000000000000000000000000000000000
0000000011000000000000000000110000000000000001100011000000000000000000
0000000000000000111000000000000000000000000000000000000000000000011110
0000000000000000110000000000000001100011000000000000000000000000000000
0001011000000000000000000000000000000000000000000001111110000000000000
0000111000000000000001100011000000000000000000000000000000001101100000
0000000000000000000000000000000000001111111111100000000000000001110000
0000000001110001000000000000000000000000000000011001111100000000000000
0000000000000000000000111111111110110000000000000001111000000000001111
0001100000000000000000000000000001110011111111000000000000000000000000
0000000011111111111111001100000000000001101100000000111011000110000000
0000000000000000000111000011111111110000000000000000000000000000111111
1111111111101111000000000000110111111111100001100011100000000000000000
0001111110000111111111111100000000000000000000000011111111111111111001
1000111000000000111000111110000001100011111111100000000111111111110000
1111111111111111000000000000000000001111111111111111000000110000111111
1111111000000000000000110001001111111111111111111001110001111111111111
1111110000000000000000111111111111111110000000011100011111111111110000
0000000000011001100000110000000110000011100011111111111111111111110000
0000000111111111111111111100011111111111001000000000111000000000010001
1101100001100000000110000011001111111111111111111111111110000000111111
1111111111111111111111111111111100000000011111111111100000111111000110
0000001100000111111111111111111111111111111111000000111111111111111111
1111111111111111111110000000001111111111000000111111101100000001110001
1111111111111111111111111111111111000000111111111111111111111111111111
1111111111111111111111100000000011111111111111111111111111111111111111
1111111111111111111111000000111111111111111111111111111111111111111111
1111111111111111111111111111111111111111111111111111111111111111111111
1111111111000000111111111111111111111111111111111111111111111111111111
1111111111111111111111111111111111111111111111111111111111111111111100
0000111111111111111111111111111111111111111111111111111111111111111111
1111111111111111111111111111111111111111111111111111111100000011111111
1111111111111111111111111111111111111111111111111111111111111111111111
1111111111111111111111111111111111111111111100000011111111111111111111
1111111111111111111111111111111111111111111111111111111111111111111111
1111111111111111111111111111111100000011111111111111111111111111111111
1111111111111111111111111111111111111111111111111111111111111111111111
1111111111111111111100000011111111111111111111111111111111111111111111
1111111111111111111111111111111111111111111111111111111111111111111111
1111111100000000111111111111111111111111111111111111111111111111111111
1111111111111111111111111111111111111111111111111111111111111111000000
0000001111111111111111111111111111111111111111111111111111111111111111
1111111111111111111111111111111111111111111111111100000000000000001111
1111111111111111111111111111111111111111111111111111111111111111111111
1111111111111111111111111111111111110000000000000000001101111111111111
1111111111111111111111111111111111111111111111111111111111111111111111
1111111111111111111110110000000000000000001101011111111111111111111111
1111111111111111111111111111111111111111111111111111111111111111111111
1111111010110000000000000000001101011011111111111111111111111111111111
1111111111111111111111111111111111111111111111111111111111111101101011
0000000000000000001101011011011111111111111111111111111111111111111111
1111111111111111111111111111111111111111111111101101101011000000000000
0000001001011011010111111111111111111111111111111111111111111111111111
1111111111111111111111111111111110101101101001000000000000000000000101
1011010110111111111111111111111111111111111111111111111111111111111111
1111111111111111110110101101101000000000000000000000000000101101011011
0111111111111111111111111111111111111111111111111111111111111111111111
1110110110101101000000000000000000000000000000000001011011010011111111
1111111111111111111111111111111111111111111111111111111111001011011010
0000000000000000000000000000000000000001011011010010111111111111111111
1111111111111111111111111111111111111111111101001011011010000000000000
0000000000000000000000000000001011010010110111111111111111111111111111
1111111111111111111111111111101101001011010000000000000000000000000000
0000000000000000000000010010110110111111111111111111111111111111111111
1111111111111101101101001000000000000000000000000000000000000000000000
0000000000000010110110101111111111111111111111111111111111111111111111
0101101101000000000000000000000000000000000000000000000000000000000000
0000110110101101111111111111111111111111111111111111111011010110110000
0000000000000000000000000000000000000000000000000000000000000000011010
1101101011111111111111111111111111111101011011010110000000000000000000
0000000000000000000000000000000000000000000000000000000010110110101111
1111111111111111111111111101011011010000000000000000000000000000000000
0000000000000000000000000000000000000000000000110110101100011111111111
1111111110001101011011000000000000000000000000000000000000000000000000
0000000000000000000000000000000000000110101100000011111111111111000000
1101011000000000000000000000000000000000000000000000000000000000000000
0000000000000000000000000000101100000000011111111000000000110100000000
0000000000000000000000000000000000000000000000000000000000000000000000
0000000000000000001100000000000111100000000000110000000000000000000000
0000000000000000000000000000000000000000000000000000000000000000000000
0000000000000000000000000000000000000000000000000000000000000000000000
0000000000000000000000000000000000000000000000000000000000000000000000
0000000000000000000000000000000000000000000000000000000000000000000000
0000